<?xml version="1.0" standalone="no"?>
<!DOCTYPE svg PUBLIC "-//W3C//DTD SVG 20010904//EN"
 "http://www.w3.org/TR/2001/REC-SVG-20010904/DTD/svg10.dtd">
<svg version="1.0" xmlns="http://www.w3.org/2000/svg"
 width="358.000000pt" height="358.000000pt" viewBox="0 0 358.000000 358.000000"
 preserveAspectRatio="xMidYMid meet">

<g transform="translate(0.000000,358.000000) scale(0.100000,-0.100000)"
fill="#000000" stroke="none">
<path d="M1623 2554 c-357 -78 -614 -399 -613 -766 1 -414 327 -755 740 -776
236 -11 422 61 590 228 169 168 237 344 227 585 -8 211 -77 368 -226 515 -121
120 -234 182 -390 215 -88 18 -243 18 -328 -1z m-49 -485 c52 -14 129 -88 154
-148 12 -26 22 -72 24 -102 l3 -54 -232 -3 -233 -2 0 -29 c0 -81 55 -183 119
-219 89 -50 188 -37 260 34 53 53 80 46 38 -10 -38 -49 -118 -86 -186 -86
-136 0 -236 97 -260 252 -25 153 39 301 154 354 55 26 99 30 159 13z m419 -96
c34 -54 72 -113 83 -131 l21 -34 84 131 c59 94 88 131 102 131 18 0 18 -2 5
-22 -60 -91 -160 -251 -164 -262 -3 -7 39 -81 92 -165 53 -83 94 -154 91 -158
-15 -14 -38 14 -121 146 l-88 141 -84 -133 c-46 -72 -88 -138 -93 -146 -4 -7
-15 -11 -24 -10 -12 3 7 41 83 161 l100 157 -90 141 c-50 77 -90 142 -90 145
0 3 7 5 15 5 8 0 44 -44 78 -97z"/>
<path d="M1445 2035 c-55 -19 -121 -93 -140 -158 -28 -94 -44 -87 200 -87
l215 0 0 38 c0 83 -78 186 -159 211 -48 14 -66 13 -116 -4z"/>
</g>
</svg>
